<?xml version="1.0" encoding="utf-8"?>
<!-- Generator: Adobe Illustrator 17.0.0, SVG Export Plug-In . SVG Version: 6.00 Build 0)  -->
<!DOCTYPE svg PUBLIC "-//W3C//DTD SVG 1.1//EN" "http://www.w3.org/Graphics/SVG/1.1/DTD/svg11.dtd">
<svg version="1.1" id="Layer_1" xmlns="http://www.w3.org/2000/svg" xmlns:xlink="http://www.w3.org/1999/xlink" x="0px" y="0px"
   width="25px" height="25px" viewBox="0 0 25 25" enable-background="new 0 0 25 25" xml:space="preserve">
<g>
  <path d="M15.623,19.249c0-0.175,0.174-0.35,0.436-0.525c0.335-0.223,0.446-0.609,0.492-0.984c0.013-0.108,0.025-0.218,0.025-0.327
    c0-0.263,0.175-0.7,0.525-0.875c0.35-0.175,0.471-0.7,0.471-0.7s0-0.525,0-0.787c0-0.263,0.393-0.612,0.743-1.137
    c0.35-0.525-0.264-0.437-0.264-0.437s0-0.437,0-0.7c0-0.262,0.719-0.175,0.719-0.175v-1.225c0.479-0.7-0.173-0.962-0.173-0.962
    c-0.262,0-0.108-0.787-0.109-0.788c-0.191-0.286-0.559-0.706-0.951-0.524c-0.115-0.204-0.223-0.413-0.344-0.612
    c-0.152-0.25-0.524-0.286-0.668-0.594c-0.123-0.262,0.024-0.346,0.203-0.534c0.05-0.052,0.49-0.573,0.557-0.535
    c-0.263-0.15-0.466-0.405-0.746-0.528c-0.092-0.04-0.764-0.096-0.74,0.003l-0.175-0.7c-0.437,0.437-0.525-0.962-0.525-0.962
    c-0.207,0.621-0.798,0.123-1.182,0.17c-0.294,0.036-0.524,0.469-0.655,0.705c-0.349-0.523-0.523,0.256-0.525,0.263
    c-0.071,0.319,0.123,0.897-0.476,0.8c-0.366-0.059-0.487-0.477-0.487-0.799c-0.175-0.787-0.875-0.437-1.05-0.262
    c-0.385,0.385-1.122,0.23-1.593,0.134C8.914,5.608,8.691,5.573,8.475,5.515C8.102,5.417,8.147,5.381,7.897,5.624
    C7.706,5.809,6.527,6.059,6.527,6.314c0,0.437-0.263,0.747-0.263,0.747c-0.35,0.175-0.35,1.414-0.35,1.414h0.279l0.245-0.211
    c0,0,0,0.07,0.015,0.201c0.164,0.492,0.371,1.211,1.04,1.121c0.289,0.286,0.951,0.949,1.396,0.829
    c0.094,1.024,0.619,1.945,1.662,2.188c-0.236,0.112-0.467,0.232-0.701,0.348c0.121,0.336,0.212,0.722,0.399,1.024
    c0.105,0.169,0.269,0.264,0.275,0.446c0.006,0.179-0.172,0.455-0.236,0.629c0.146,0.029,0.292,0.058,0.438,0.087
    c-0.158,0.566-0.267,0.977,0.172,1.435c0.221,0.23,0.565,0.262,0.825,0.458c0.324,0.245,0.494,0.583,0.688,0.931
    c0.271,0.485,0.51,1.02,0.852,1.462c-1.266-0.008-1.322-1.325-2.009-2.091c-0.397-0.443-1.312-0.527-1.407-1.244
    c-0.029-0.215,0.111-0.649,0.179-0.863c-0.146-0.029-0.292-0.058-0.438-0.087c0.064-0.175,0.239-0.444,0.234-0.624
    c-0.005-0.186-0.161-0.273-0.269-0.447c-0.189-0.304-0.28-0.69-0.402-1.028c0.233-0.116,0.465-0.237,0.701-0.349
    c-1.032-0.235-1.583-1.168-1.66-2.188c-0.304,0.135-0.617-0.072-0.846-0.258c-0.074-0.06-0.494-0.581-0.556-0.573
    C5.74,9.802,5.74,8.315,5.74,8.315L5.127,8.752L4.076,8.84L3.548,8.402C2.936,9.277,2.493,8.927,2.493,8.927L1.782,9.539
    L1.279,9.977v0.875l0.655,0.438l-0.133,1.837l-0.44,0.437l0.432,1.749c1.574-1.662,4.363-0.787,4.363-0.787
    c0.503-0.175,2.296,2.537,2.296,2.537c0.525,1.487,1.574,1.225,1.574,1.225c0.555,0.74,1.585,1.044,2.147,1.16L13,20.124
    l0.438,0.962l0.525,0.087l0.437-0.525l0.087-0.262l0.087-0.175c0,0,0.175-0.525,0.787-0.612
    C15.974,19.511,15.623,19.424,15.623,19.249z M10.669,18.492c-0.268-0.159-0.51-0.361-0.744-0.566
    c-0.467-0.41-0.897-0.86-1.289-1.342c-0.765-0.943-1.437-2.043-2.569-2.588c-1.052-0.507-2.471-0.6-3.591-0.25
    c1.016-0.317,2.042-0.59,3.034-0.554C4.469,11.305,2.571,11.3,2.571,11.3c2.029-0.22,3.013,1.13,3.414,1.932
    c0.541,0.079,1.068,0.27,1.575,0.611c-0.135-0.445-0.523-1.204-1.49-2.493c0,0,2.287,2.08,2.406,3.333
    c0.731,0.902,1.186,2.05,2.196,2.71c0.012,0.008,0.438,0.234,0.43,0.186c0,0,0.21,1.164,0.21,1.164
    C11.318,18.774,10.717,18.521,10.669,18.492z M13.774,16.067c0.092,0.355,0.744,2.334,0.69,2.958
    c-0.018,0.203-0.048,0.405-0.178,0.554c-0.03,0.035-0.067,0.067-0.109,0.095c-0.081,0.053-0.813,0.139-0.829,0.006
    c-0.223-1.804-0.536-3.635-0.945-5.434c-0.57-0.032-1.778-0.978-1.778-0.978c0.351,0.235,1.212,0.384,1.65,0.448
    c-0.39-1.633-0.856-3.236-1.411-4.76c0.413,1.135,0.976,2.21,1.503,3.298c0.213-0.2,0.893-0.962,0.893-2.579
    c0,0,0,2.341-0.704,2.974c0.069,0.146,0.63,1.471,0.805,2.002c0.394-0.242,1.864-1.331,2.535-4.496
    C15.894,10.152,15.057,15.384,13.774,16.067z"/>
  <path d="M23.583,9.799c0.273-0.251-0.317-0.798-0.317-0.798c-0.441,0.069-0.667-0.81-0.667-0.81
    c-0.495-0.721-1.403,0.04-1.403,0.04c-0.175-0.007-0.421-0.389-0.421-0.389c0.014-0.35-0.787-0.033-0.787-0.033
    c-0.339-0.277-0.811,0.546-0.811,0.546c-0.145-0.707-0.767-0.503-0.767-0.503c-0.597-0.375-0.887,0.291-0.887,0.291
    s0.201,0.534,0.415,0.543c0,0,0.772,0.382,1.264,1.191c0,0-0.164,0.781,0.098,0.792c0,0,0.557,0.286,0.178,0.97l-0.051,1.223
    c0,0-0.87-0.124-0.881,0.138c-0.011,0.262-0.029,0.699-0.029,0.699s0.637-0.061,0.266,0.449c-0.372,0.51-0.757,0.844-0.768,1.106
    c-0.011,0.262-0.033,0.787-0.033,0.787s-0.131,0.52-0.488,0.68c-0.357,0.16-0.539,0.59-0.55,0.853
    c-0.017,0.393-0.091,0.76-0.34,1.074c-0.064,0.081-0.142,0.161-0.23,0.215c-0.269,0.164-0.45,0.331-0.457,0.506
    c-0.001,0.029,0.008,0.056,0.02,0.081c0.489-0.353,1.633-1.253,2.686-2.643c0.467-0.82,1.272-2.53,1.358-4.696
    c0.005-0.386-0.002-0.689-0.007-0.857c-0.002-0.044-0.002-0.086-0.005-0.131c0.001,0.021,0.003,0.067,0.005,0.131
    c0.015,0.292,0.018,0.579,0.007,0.857c-0.012,0.848-0.082,2.087-0.355,3.125c0.27-0.513,0.509-1.067,0.697-1.662
    c0.12-0.422,0.202-0.775,0.255-1.02c0.019-0.096,0.042-0.19,0.058-0.287c0.005-0.028,0.011-0.055,0.015-0.084
    c0,0-0.005,0.03-0.015,0.084c-0.012,0.063-0.031,0.162-0.058,0.287c-0.069,0.351-0.152,0.693-0.255,1.02
    c-0.534,1.882-1.796,5.102-4.337,5.958c0.049,0.081,0.049,0.137-0.345,0.176c-0.262,0.026-0.447,0.135-0.575,0.252
    c4.438-0.583,5.75-6.777,5.75-6.777c0.334-1.737,1.453-1.253,1.453-1.253c1.671-0.193,0.571-1.114,1.107-1.354
    C23.91,10.337,23.583,9.799,23.583,9.799z"/>
</g>
</svg>