<?xml version="1.0" encoding="utf-8"?>
<!-- Generator: Adobe Illustrator 17.0.0, SVG Export Plug-In . SVG Version: 6.00 Build 0)  -->
<!DOCTYPE svg PUBLIC "-//W3C//DTD SVG 1.1//EN" "http://www.w3.org/Graphics/SVG/1.1/DTD/svg11.dtd">
<svg version="1.1" id="Layer_1" xmlns="http://www.w3.org/2000/svg" xmlns:xlink="http://www.w3.org/1999/xlink" x="0px" y="0px"
   width="25px" height="25px" viewBox="0 0 25 25" enable-background="new 0 0 25 25" xml:space="preserve">
<g>
  <path d="M7.299,20.117c-1.458,0-2.708-0.458-3.583-1.333c-2.583-2.583-1.292-8.042,2.875-12.167c2.667-2.667,5.875-4.25,8.625-4.25
    c1.458,0,2.708,0.458,3.583,1.333c1.25,1.25,1.667,3.25,1.083,5.583c-0.542,2.25-1.958,4.583-3.958,6.583
    C13.299,18.534,10.049,20.117,7.299,20.117z M15.216,3.201c-2.5,0-5.583,1.542-8.042,3.958c-3.833,3.833-5.125,8.75-2.875,11
    c0.708,0.708,1.75,1.083,3,1.083c2.5,0,5.583-1.542,8.042-3.958c1.875-1.875,3.208-4.083,3.75-6.208
    c0.5-2.042,0.208-3.75-0.833-4.792C17.508,3.576,16.466,3.201,15.216,3.201z"/>
  <path d="M8.133,17.909c-1.042,0-1.958-0.333-2.583-0.958c-1.917-1.917-0.917-5.917,2.292-9.125c2.042-2.042,4.458-3.25,6.542-3.25
    c1.042,0,1.958,0.333,2.583,0.958c0.958,0.958,1.208,2.458,0.75,4.208c-0.458,1.667-1.5,3.417-3,4.917
    C12.674,16.701,10.216,17.909,8.133,17.909z M14.383,5.409c-1.833,0-4.125,1.167-5.958,3c-2.792,2.792-3.833,6.417-2.292,7.958
    c0.458,0.458,1.167,0.708,2,0.708c1.833,0,4.125-1.167,5.958-3c1.375-1.375,2.375-3,2.792-4.542
    c0.375-1.458,0.208-2.667-0.542-3.417C15.924,5.659,15.216,5.409,14.383,5.409z"/>
  <path d="M9.383,15.701c-0.75,0-1.417-0.25-1.875-0.708c-1.333-1.333-0.708-4.042,1.375-6.125c1.292-1.292,2.917-2.083,4.292-2.083
    c0.75,0,1.417,0.25,1.875,0.708c0.667,0.667,0.875,1.708,0.583,2.875c-0.292,1.125-0.958,2.292-1.958,3.25
    C12.341,14.909,10.758,15.701,9.383,15.701z M13.174,7.617c-1.125,0-2.542,0.708-3.708,1.833c-1.708,1.708-2.333,4-1.375,4.958
    c0.375,0.375,0.917,0.458,1.292,0.458c1.125,0,2.542-0.708,3.708-1.833c0.875-0.875,1.5-1.875,1.75-2.875
    c0.208-0.917,0.083-1.667-0.333-2.083C14.049,7.701,13.549,7.617,13.174,7.617z"/>
  <path d="M10.466,13.367c-0.375,0-0.708-0.125-0.958-0.375c-0.667-0.667-0.417-1.958,0.583-2.958c0.583-0.583,1.333-0.958,2-0.958
    c0.375,0,0.708,0.125,0.958,0.375c0.333,0.333,0.458,0.875,0.292,1.458c-0.125,0.5-0.458,1.042-0.875,1.5
    C11.841,13.034,11.133,13.367,10.466,13.367z M12.091,9.951c-0.417,0-0.958,0.292-1.417,0.708c-0.667,0.667-0.875,1.5-0.583,1.75
    c0.083,0.083,0.208,0.125,0.375,0.125c0.417,0,0.958-0.292,1.417-0.708c0.333-0.333,0.583-0.75,0.667-1.125
    c0.083-0.292,0.042-0.542-0.083-0.667C12.383,9.992,12.258,9.951,12.091,9.951z"/>
  <path d="M11.424,21.951c-2.75,0-5.5-1.042-7.542-3.083c-0.167-0.167-0.167-0.417,0-0.583c0.167-0.167,0.417-0.167,0.583,0
    c3.208,3.208,8.292,3.792,12.125,1.333c0.125-0.083,0.292-0.083,0.417,0c0.083,0.042,0.208,0.125,0.292,0.167
    c0.083-0.083,0.167-0.167,0.292-0.167l0,0c-0.042-0.167,0.042-0.333,0.167-0.417c0.25-0.208,0.542-0.208,0.75-0.208
    c0.042,0,0.042,0,0.083,0c0-0.042-0.042-0.125-0.042-0.167c0-0.208,0.167-0.333,0.333-0.375l0.292-0.042
    c-0.042-0.083-0.042-0.208,0-0.292c0.042-0.125,0.167-0.25,0.333-0.25h0.083c0-0.083,0-0.125,0.042-0.208
    c0.042-0.125,0.208-0.208,0.333-0.25c0.042,0,0.083,0,0.125,0l-0.333-0.333c-0.125-0.125-0.167-0.333-0.042-0.5
    c2.375-3.875,1.792-8.833-1.417-12.042c-0.167-0.167-0.167-0.417,0-0.583c0.167-0.167,0.417-0.167,0.583,0
    c3.417,3.417,4.083,8.625,1.708,12.792l0.542,0.542c0.083,0.083,0.125,0.208,0.125,0.333c0,0.125-0.083,0.208-0.167,0.292
    c-0.167,0.125-0.333,0.208-0.5,0.292c0,0.167-0.083,0.292-0.125,0.333c-0.083,0.083-0.125,0.125-0.208,0.125
    c0,0.083,0,0.167-0.042,0.25s-0.125,0.292-0.417,0.333l-0.292,0.042c-0.042,0.167-0.083,0.292-0.208,0.417
    c-0.208,0.208-0.5,0.25-0.708,0.25c0,0.125-0.042,0.25-0.125,0.333c-0.042,0.083-0.125,0.125-0.208,0.208
    c0,0.083-0.042,0.167-0.083,0.208c-0.083,0.125-0.208,0.208-0.375,0.25c-0.125,0-0.25-0.042-0.292-0.042
    c-0.208-0.083-0.417-0.167-0.625-0.292C15.174,21.451,13.299,21.951,11.424,21.951z"/>
</g>
</svg>