<?xml version="1.0" encoding="utf-8"?>
<!-- Generator: Adobe Illustrator 17.0.0, SVG Export Plug-In . SVG Version: 6.00 Build 0)  -->
<!DOCTYPE svg PUBLIC "-//W3C//DTD SVG 1.1//EN" "http://www.w3.org/Graphics/SVG/1.1/DTD/svg11.dtd">
<svg version="1.1" id="Layer_1" xmlns="http://www.w3.org/2000/svg" xmlns:xlink="http://www.w3.org/1999/xlink" x="0px" y="0px"
	 width="25px" height="25px" viewBox="0 0 25 25" enable-background="new 0 0 25 25" xml:space="preserve">
<g>
	<g>
		<path d="M16.123,21.207c-0.252-0.204-2.736-2.217-4.524-5.724c-1.142-2.24,0.897-3.283-0.049-6.399
			c-0.447-1.472-1.612-1.587-1.612-1.587s-0.197-1.074,0.138-2.881c0.22-1.012-1.399-1.24-1.606-0.788
			C7.832,5.541,9.138,7.503,9.138,7.503s-2.692-0.161-2.7,2.58c-0.005,1.617,0.503,4.139,1.486,6.068
			c2.932,5.753,8.042,5.538,8.042,5.538S16.747,21.714,16.123,21.207z M18.076,19.787c-0.189-0.118-0.498-1.959-1.398-2.822
			c-1.248-1.197,0.368-2.347-0.519-4.412c-0.419-0.975-1.229-0.948-1.229-0.948s-0.677-0.871,0.065-1.957
			c0.557-0.8-1.245-0.772-1.352-0.44c-0.309,1.24,0.738,2.475,0.738,2.475s-2.092,0.008-1.89,1.9c0.12,1.117,0.909,2.925,1.71,4.179
			c1.01,1.581,3.804,2.371,3.804,2.371S18.544,20.079,18.076,19.787z"/>
	</g>
</g>
</svg>
