<?xml version="1.0" encoding="utf-8"?>
<!-- Generator: Adobe Illustrator 17.0.0, SVG Export Plug-In . SVG Version: 6.00 Build 0)  -->
<!DOCTYPE svg PUBLIC "-//W3C//DTD SVG 1.1//EN" "http://www.w3.org/Graphics/SVG/1.1/DTD/svg11.dtd">
<svg version="1.1" id="Layer_1" xmlns="http://www.w3.org/2000/svg" xmlns:xlink="http://www.w3.org/1999/xlink" x="0px" y="0px"
	 width="25px" height="25px" viewBox="0 0 25 25" enable-background="new 0 0 25 25" xml:space="preserve">
<path d="M5.285,20.639c-0.276,0-0.604-0.137-0.795-0.325c-0.087-0.086-0.37-0.394-0.37-0.754V9.111c0-0.03,0.675-3.391,4.404-5.281
	c0.088-0.044,0.19-0.05,0.282-0.015l11.412,4.332c0.408,0.121,0.661,0.489,0.661,0.963v5.47c0,0.128-0.07,0.246-0.183,0.308
	c-0.113,0.061-0.25,0.056-0.358-0.014c-0.072-0.047-0.242-0.094-0.46-0.094c-0.172,0-0.288,0.031-0.441,0.089
	c-0.411,0.155-0.677,0.486-0.677,0.843c0,0.36,0.262,0.691,0.667,0.843c0.172,0.065,0.295,0.089,0.453,0.089
	c0.216,0,0.386-0.047,0.458-0.094c0.108-0.07,0.245-0.075,0.358-0.014s0.183,0.179,0.183,0.308v2.525c0,0.59-0.403,1.04-0.937,1.047
	L5.285,20.639z M4.82,9.442V19.56c0.001,0.035,0.056,0.151,0.162,0.256c0.06,0.06,0.209,0.123,0.289,0.123l14.662-0.222
	c0.181-0.002,0.247-0.209,0.247-0.347v-2.046c-0.096,0.014-0.196,0.021-0.299,0.021c-0.242,0-0.451-0.04-0.7-0.134
	c-0.68-0.256-1.12-0.844-1.12-1.498c0-0.651,0.444-1.239,1.13-1.498c0.214-0.081,0.413-0.134,0.688-0.134
	c0.103,0,0.204,0.007,0.3,0.021V9.442H4.82z M4.944,8.742H19.81L8.704,4.525C6.207,5.845,5.253,7.868,4.944,8.742z M10.183,18.818
	c-1.206,0-2.187-0.853-2.187-1.901c0-1.049,0.981-1.902,2.187-1.902c1.206,0,2.186,0.853,2.186,1.902
	C12.37,17.965,11.389,18.818,10.183,18.818z M10.183,15.715c-0.82,0-1.487,0.539-1.487,1.202c0,0.663,0.667,1.201,1.487,1.201
	c0.82,0,1.486-0.539,1.486-1.201C11.67,16.254,11.003,15.715,10.183,15.715z M15.576,14.757c-0.909,0-1.648-0.683-1.648-1.522
	s0.739-1.522,1.648-1.522s1.648,0.683,1.648,1.522S16.485,14.757,15.576,14.757z M15.576,12.414c-0.523,0-0.948,0.369-0.948,0.822
	s0.425,0.822,0.948,0.822c0.523,0,0.948-0.369,0.948-0.822C16.524,12.783,16.099,12.414,15.576,12.414z M8.695,13.942
	c-1.048,0-1.901-0.796-1.901-1.775c0-0.979,0.853-1.775,1.901-1.775c1.049,0,1.902,0.796,1.902,1.775
	C10.596,13.145,9.743,13.942,8.695,13.942z M8.695,11.092c-0.663,0-1.201,0.482-1.201,1.075s0.539,1.075,1.201,1.075
	s1.202-0.482,1.202-1.075C9.896,11.574,9.357,11.092,8.695,11.092z M9.17,8.369c-1.055,0-2.123-0.392-2.123-1.142
	S8.115,6.086,9.17,6.086s2.123,0.392,2.123,1.142S10.225,8.369,9.17,8.369z M9.17,6.786c-0.918,0-1.423,0.332-1.423,0.442
	c0,0.11,0.505,0.442,1.423,0.442c0.919,0,1.423-0.332,1.423-0.442C10.593,7.117,10.088,6.786,9.17,6.786z"/>
</svg>
