<?xml version="1.0" encoding="utf-8"?>
<!-- Generator: Adobe Illustrator 17.0.0, SVG Export Plug-In . SVG Version: 6.00 Build 0)  -->
<!DOCTYPE svg PUBLIC "-//W3C//DTD SVG 1.1//EN" "http://www.w3.org/Graphics/SVG/1.1/DTD/svg11.dtd">
<svg version="1.1" id="Layer_1" xmlns="http://www.w3.org/2000/svg" xmlns:xlink="http://www.w3.org/1999/xlink" x="0px" y="0px"
   width="25px" height="25px" viewBox="0 0 25 25" enable-background="new 0 0 25 25" xml:space="preserve">
<g>
  <path d="M12.632,20.495c-2.302,0-4.566-0.749-6.728-2.226c-3.167-2.164-3.576-5.263-2.903-7.442
    c0.832-2.693,3.273-4.503,6.075-4.503c1.133,0,2.289,0.284,3.441,0.844c1.51-0.595,2.903-0.896,4.144-0.896
    c2.546,0,4.459,1.296,5.248,3.555c0.993,2.841-0.026,6.39-2.37,8.256C18.829,18.649,16.231,20.495,12.632,20.495z M9.076,7.458
    c-2.301,0-4.307,1.488-4.992,3.703c-0.717,2.322,0.202,4.629,2.459,6.171c1.971,1.346,4.019,2.029,6.089,2.029
    c3.231,0,5.563-1.657,6.201-2.165c1.952-1.554,2.833-4.626,2.005-6.995c-0.63-1.802-2.113-2.795-4.178-2.795
    c-1.158,0-2.489,0.305-3.954,0.908l-0.243,0.1L12.23,8.293C11.163,7.739,10.102,7.458,9.076,7.458z"/>
</g>
<path d="M12.696,8.943c1.66,1.043,2.936-0.106,3.312,2.048c0,0,1.291-1.667-2.315-2.439c0,0,2.335,0.401,3.185-0.7
  c0,0-2.382,0.48-3.734-0.656c0,0,0.25-1.173,1.037-1.569L13.46,5.054c0,0-1.362,0.776-1.14,1.973c0,0-1.561,0.474-3.298-2.523
  c0,0,0.685,3.527,2.514,3.369c0,0-2.287,0.213-2.187,2.866C9.35,10.739,10.642,7.652,12.696,8.943z"/>
<path d="M6.983,9.247c-1.108,0.002-2.852,2.729-1.423,4.815c1.462,2.135-0.295-0.871,1.105-2.734
  C7.638,10.032,8.383,9.244,6.983,9.247z"/>
<path d="M18.962,15.626c-0.818,1.056-1.964,1.72-2.556,1.728c-0.086,0.002-0.162,0.002-0.232,0.002
  c-0.284,0-0.414-0.012-0.472-0.024c0.072-0.054,0.248-0.146,0.42-0.236c0.64-0.332,1.712-0.89,2.414-1.83
  c0.864-1.158,0.99-2.744,1.05-3.506c0.004-0.048,0.008-0.094,0.012-0.138c0.05,0.184,0.118,0.47,0.194,0.786
  C20.118,13.764,19.52,14.906,18.962,15.626z"/>
</svg>